<svg width="690" height="350" viewBox="0 0 690 350" fill="none" xmlns="http://www.w3.org/2000/svg">
<g clip-path="url(#clip0_685_673)">
<rect width="690" height="350" rx="24" fill="white"/>
<path opacity="0.25" fill-rule="evenodd" clip-rule="evenodd" d="M114.269 537.825C129.354 537.825 136.896 537.825 141.582 533.139C146.269 528.453 146.269 520.91 146.269 505.825V476.167C146.269 461.082 146.269 453.539 141.582 448.853C136.896 444.167 129.354 444.167 114.269 444.167H70.3691C70.2656 444.167 70.1816 444.083 70.1816 443.979V443.979C70.1816 443.875 70.2656 443.792 70.3691 443.792H114.269C129.354 443.792 136.896 443.792 141.582 439.105C146.269 434.419 146.269 426.876 146.269 411.792V382.133C146.269 367.048 146.269 359.506 141.582 354.819C136.896 350.133 129.354 350.133 114.269 350.133H70.3691C70.2656 350.133 70.1816 350.049 70.1816 349.945V349.945C70.1816 349.842 70.2656 349.758 70.3691 349.758H114.269C129.354 349.758 136.896 349.758 141.582 345.072C146.269 340.385 146.269 332.843 146.269 317.758V288.1C146.269 273.015 146.269 265.472 141.582 260.786C136.896 256.1 129.354 256.1 114.269 256.1H70.3691C70.2656 256.1 70.1816 256.016 70.1816 255.912V255.912C70.1816 255.809 70.2656 255.725 70.3691 255.725H114.269C129.354 255.725 136.896 255.725 141.582 251.038C146.269 246.352 146.269 238.81 146.269 223.725V194.067C146.269 178.982 146.269 171.439 141.582 166.753C136.896 162.066 129.354 162.066 114.269 162.066H70.3691C70.2656 162.066 70.1816 161.983 70.1816 161.879V161.879C70.1816 161.775 70.2656 161.691 70.3691 161.691H114.269C129.354 161.691 136.896 161.691 141.582 157.005C146.269 152.319 146.269 144.776 146.269 129.691V71.0056C146.269 70.9021 146.353 70.8181 146.456 70.8181V70.8181C146.56 70.8181 146.644 70.9021 146.644 71.0056V129.692C146.644 144.776 146.644 152.319 151.33 157.005C156.016 161.691 163.559 161.691 178.644 161.691H209.067C224.152 161.691 231.695 161.691 236.381 157.005C241.067 152.319 241.067 144.776 241.067 129.691V71.0056C241.067 70.9021 241.151 70.8181 241.255 70.8181V70.8181C241.358 70.8181 241.442 70.9021 241.442 71.0056V129.692C241.442 144.776 241.442 152.319 246.129 157.005C250.815 161.691 258.358 161.691 273.442 161.691H303.865C318.95 161.691 326.492 161.691 331.179 157.005C335.865 152.319 335.865 144.776 335.865 129.691V71.0056C335.865 70.9021 335.949 70.8181 336.053 70.8181V70.8181C336.156 70.8181 336.24 70.9021 336.24 71.0056V129.692C336.24 144.776 336.24 152.319 340.926 157.005C345.613 161.691 353.155 161.691 368.24 161.691H398.663C413.748 161.691 421.291 161.691 425.977 157.005C430.663 152.319 430.663 144.776 430.663 129.691V71.0056C430.663 70.9021 430.747 70.8181 430.851 70.8181V70.8181C430.954 70.8181 431.038 70.9021 431.038 71.0056V129.692C431.038 144.776 431.038 152.319 435.725 157.005C440.411 161.691 447.953 161.691 463.038 161.691H493.461C508.546 161.691 516.088 161.691 520.775 157.005C525.461 152.319 525.461 144.776 525.461 129.691V71.0056C525.461 70.9021 525.545 70.8181 525.648 70.8181V70.8181C525.752 70.8181 525.836 70.9021 525.836 71.0056V129.692C525.836 144.776 525.836 152.319 530.522 157.005C535.208 161.691 542.751 161.691 557.836 161.691H588.26C603.345 161.691 610.887 161.691 615.573 157.005C620.26 152.319 620.26 144.776 620.26 129.691V71.0056C620.26 70.9021 620.344 70.8181 620.447 70.8181V70.8181C620.551 70.8181 620.635 70.9021 620.635 71.0056V129.692C620.635 144.776 620.635 152.319 625.321 157.005C630.007 161.691 637.55 161.691 652.635 161.691H683.059C698.144 161.691 705.686 161.691 710.372 157.005C715.059 152.319 715.059 144.776 715.059 129.691V71.0056C715.059 70.9021 715.143 70.8181 715.246 70.8181V70.8181C715.35 70.8181 715.434 70.9021 715.434 71.0056V129.692C715.434 144.776 715.434 152.319 720.12 157.005C724.806 161.691 732.349 161.691 747.434 161.691H777.857C792.942 161.691 800.484 161.691 805.171 157.005C809.857 152.319 809.857 144.776 809.857 129.691V71.0056C809.857 70.9021 809.941 70.8181 810.044 70.8181V70.8181C810.148 70.8181 810.232 70.9021 810.232 71.0056V129.692C810.232 144.776 810.232 152.319 814.918 157.005C819.604 161.691 827.147 161.691 842.232 161.691H885.994C886.098 161.691 886.182 161.775 886.182 161.879V161.879C886.182 161.983 886.098 162.066 885.994 162.066H842.232C827.147 162.066 819.604 162.066 814.918 166.753C810.232 171.439 810.232 178.982 810.232 194.066V223.725C810.232 238.81 810.232 246.352 814.918 251.038C819.604 255.725 827.147 255.725 842.232 255.725H885.994C886.098 255.725 886.182 255.809 886.182 255.912V255.912C886.182 256.016 886.098 256.1 885.994 256.1H842.232C827.147 256.1 819.604 256.1 814.918 260.786C810.232 265.472 810.232 273.015 810.232 288.1V317.758C810.232 332.843 810.232 340.385 814.918 345.072C819.604 349.758 827.147 349.758 842.232 349.758H885.994C886.098 349.758 886.182 349.842 886.182 349.945V349.945C886.182 350.049 886.098 350.133 885.994 350.133H842.232C827.147 350.133 819.604 350.133 814.918 354.819C810.232 359.506 810.232 367.048 810.232 382.133V411.792C810.232 426.876 810.232 434.419 814.918 439.105C819.604 443.792 827.147 443.792 842.232 443.792H885.994C886.098 443.792 886.182 443.875 886.182 443.979V443.979C886.182 444.083 886.098 444.167 885.994 444.167H842.232C827.147 444.167 819.604 444.167 814.918 448.853C810.232 453.539 810.232 461.082 810.232 476.167V505.825C810.232 520.91 810.232 528.453 814.918 533.139C819.604 537.825 827.147 537.825 842.232 537.825H885.994C886.098 537.825 886.182 537.909 886.182 538.013V538.013C886.182 538.116 886.098 538.2 885.994 538.2H842.232C827.147 538.2 819.604 538.2 814.918 542.887C810.232 547.573 810.232 555.115 810.232 570.2V626.994C810.232 627.098 810.148 627.182 810.044 627.182V627.182C809.941 627.182 809.857 627.098 809.857 626.994V570.2C809.857 555.115 809.857 547.573 805.171 542.887C800.484 538.2 792.942 538.2 777.857 538.2H747.434C732.349 538.2 724.806 538.2 720.12 542.887C715.434 547.573 715.434 555.115 715.434 570.2V626.994C715.434 627.098 715.35 627.182 715.246 627.182V627.182C715.143 627.182 715.059 627.098 715.059 626.994V570.2C715.059 555.115 715.059 547.573 710.372 542.887C705.686 538.2 698.144 538.2 683.059 538.2H652.635C637.55 538.2 630.007 538.2 625.321 542.887C620.635 547.573 620.635 555.115 620.635 570.2V626.994C620.635 627.098 620.551 627.182 620.447 627.182V627.182C620.344 627.182 620.26 627.098 620.26 626.994V570.2C620.26 555.115 620.26 547.573 615.573 542.887C610.887 538.2 603.345 538.2 588.26 538.2H557.836C542.751 538.2 535.208 538.2 530.522 542.887C525.836 547.573 525.836 555.115 525.836 570.2V626.994C525.836 627.098 525.752 627.182 525.648 627.182V627.182C525.545 627.182 525.461 627.098 525.461 626.994V570.2C525.461 555.115 525.461 547.573 520.775 542.887C516.088 538.2 508.546 538.2 493.461 538.2H463.038C447.953 538.2 440.411 538.2 435.725 542.887C431.038 547.573 431.038 555.115 431.038 570.2V626.994C431.038 627.098 430.954 627.182 430.851 627.182V627.182C430.747 627.182 430.663 627.098 430.663 626.994V570.2C430.663 555.115 430.663 547.573 425.977 542.887C421.291 538.2 413.748 538.2 398.663 538.2H368.24C353.155 538.2 345.613 538.2 340.926 542.887C336.24 547.573 336.24 555.115 336.24 570.2V626.994C336.24 627.098 336.156 627.182 336.053 627.182V627.182C335.949 627.182 335.865 627.098 335.865 626.994V570.2C335.865 555.115 335.865 547.573 331.179 542.887C326.492 538.2 318.95 538.2 303.865 538.2H273.442C258.358 538.2 250.815 538.2 246.129 542.887C241.442 547.573 241.442 555.115 241.442 570.2V626.994C241.442 627.098 241.358 627.182 241.255 627.182V627.182C241.151 627.182 241.067 627.098 241.067 626.994V570.2C241.067 555.115 241.067 547.573 236.381 542.887C231.695 538.2 224.152 538.2 209.067 538.2H178.644C163.559 538.2 156.016 538.2 151.33 542.887C146.644 547.573 146.644 555.115 146.644 570.2V626.994C146.644 627.098 146.56 627.182 146.456 627.182V627.182C146.353 627.182 146.269 627.098 146.269 626.994V570.2C146.269 555.115 146.269 547.573 141.582 542.887C136.896 538.2 129.354 538.2 114.269 538.2H70.3691C70.2656 538.2 70.1816 538.116 70.1816 538.013V538.013C70.1816 537.909 70.2656 537.825 70.3691 537.825H114.269ZM809.857 194.067C809.857 178.982 809.857 171.439 805.171 166.753C800.484 162.066 792.942 162.066 777.857 162.066H747.434C732.349 162.066 724.806 162.066 720.12 166.753C715.434 171.439 715.434 178.982 715.434 194.066V223.725C715.434 238.81 715.434 246.352 720.12 251.038C724.806 255.725 732.349 255.725 747.434 255.725H777.857C792.942 255.725 800.484 255.725 805.171 251.038C809.857 246.352 809.857 238.81 809.857 223.725V194.067ZM715.059 194.067C715.059 178.982 715.059 171.439 710.372 166.753C705.686 162.066 698.144 162.066 683.059 162.066H652.635C637.55 162.066 630.007 162.066 625.321 166.753C620.635 171.439 620.635 178.982 620.635 194.066V223.725C620.635 238.81 620.635 246.352 625.321 251.038C630.007 255.725 637.55 255.725 652.635 255.725H683.059C698.144 255.725 705.686 255.725 710.372 251.038C715.059 246.352 715.059 238.81 715.059 223.725V194.067ZM620.26 194.067C620.26 178.982 620.26 171.439 615.573 166.753C610.887 162.066 603.345 162.066 588.26 162.066H557.836C542.751 162.066 535.208 162.066 530.522 166.753C525.836 171.439 525.836 178.982 525.836 194.066V223.725C525.836 238.81 525.836 246.352 530.522 251.038C535.208 255.725 542.751 255.725 557.836 255.725H588.26C603.345 255.725 610.887 255.725 615.573 251.038C620.26 246.352 620.26 238.81 620.26 223.725V194.067ZM525.461 194.067C525.461 178.982 525.461 171.439 520.775 166.753C516.088 162.066 508.546 162.066 493.461 162.066H463.038C447.953 162.066 440.411 162.066 435.725 166.753C431.038 171.439 431.038 178.982 431.038 194.066V223.725C431.038 238.81 431.038 246.352 435.725 251.038C440.411 255.725 447.953 255.725 463.038 255.725H493.461C508.546 255.725 516.088 255.725 520.775 251.038C525.461 246.352 525.461 238.81 525.461 223.725V194.067ZM430.663 194.067C430.663 178.982 430.663 171.439 425.977 166.753C421.291 162.066 413.748 162.066 398.663 162.066H368.24C353.155 162.066 345.613 162.066 340.926 166.753C336.24 171.439 336.24 178.982 336.24 194.066V223.725C336.24 238.81 336.24 246.352 340.926 251.038C345.613 255.725 353.155 255.725 368.24 255.725H398.663C413.748 255.725 421.291 255.725 425.977 251.038C430.663 246.352 430.663 238.81 430.663 223.725V194.067ZM335.865 194.067C335.865 178.982 335.865 171.439 331.179 166.753C326.492 162.066 318.95 162.066 303.865 162.066H273.442C258.358 162.066 250.815 162.066 246.129 166.753C241.442 171.439 241.442 178.982 241.442 194.066V223.725C241.442 238.81 241.442 246.352 246.129 251.038C250.815 255.725 258.358 255.725 273.442 255.725H303.865C318.95 255.725 326.492 255.725 331.179 251.038C335.865 246.352 335.865 238.81 335.865 223.725V194.067ZM241.067 194.067C241.067 178.982 241.067 171.439 236.381 166.753C231.695 162.066 224.152 162.066 209.067 162.066H178.644C163.559 162.066 156.016 162.066 151.33 166.753C146.644 171.439 146.644 178.982 146.644 194.066V223.725C146.644 238.81 146.644 246.352 151.33 251.038C156.016 255.725 163.559 255.725 178.644 255.725H209.067C224.152 255.725 231.695 255.725 236.381 251.038C241.067 246.352 241.067 238.81 241.067 223.725V194.067ZM178.644 349.758C163.559 349.758 156.016 349.758 151.33 345.072C146.644 340.385 146.644 332.843 146.644 317.758V288.1C146.644 273.015 146.644 265.472 151.33 260.786C156.016 256.1 163.559 256.1 178.644 256.1H209.067C224.152 256.1 231.695 256.1 236.381 260.786C241.067 265.472 241.067 273.015 241.067 288.1V317.758C241.067 332.843 241.067 340.385 236.381 345.072C231.695 349.758 224.152 349.758 209.067 349.758H178.644ZM273.442 349.758C258.358 349.758 250.815 349.758 246.129 345.072C241.442 340.385 241.442 332.843 241.442 317.758V288.1C241.442 273.015 241.442 265.472 246.129 260.786C250.815 256.1 258.358 256.1 273.442 256.1H303.865C318.95 256.1 326.492 256.1 331.179 260.786C335.865 265.472 335.865 273.015 335.865 288.1V317.758C335.865 332.843 335.865 340.385 331.179 345.072C326.492 349.758 318.95 349.758 303.865 349.758H273.442ZM368.24 349.758C353.155 349.758 345.613 349.758 340.926 345.072C336.24 340.385 336.24 332.843 336.24 317.758V288.1C336.24 273.015 336.24 265.472 340.926 260.786C345.613 256.1 353.155 256.1 368.24 256.1H398.663C413.748 256.1 421.291 256.1 425.977 260.786C430.663 265.472 430.663 273.015 430.663 288.1V317.758C430.663 332.843 430.663 340.385 425.977 345.072C421.291 349.758 413.748 349.758 398.663 349.758H368.24ZM463.038 349.758C447.953 349.758 440.411 349.758 435.725 345.072C431.038 340.385 431.038 332.843 431.038 317.758V288.1C431.038 273.015 431.038 265.472 435.725 260.786C440.411 256.1 447.953 256.1 463.038 256.1H493.461C508.546 256.1 516.088 256.1 520.775 260.786C525.461 265.472 525.461 273.015 525.461 288.1V317.758C525.461 332.843 525.461 340.385 520.775 345.072C516.088 349.758 508.546 349.758 493.461 349.758H463.038ZM557.836 349.758C542.751 349.758 535.208 349.758 530.522 345.072C525.836 340.385 525.836 332.843 525.836 317.758V288.1C525.836 273.015 525.836 265.472 530.522 260.786C535.208 256.1 542.751 256.1 557.836 256.1H588.26C603.345 256.1 610.887 256.1 615.573 260.786C620.26 265.472 620.26 273.015 620.26 288.1V317.758C620.26 332.843 620.26 340.385 615.573 345.072C610.887 349.758 603.345 349.758 588.26 349.758H557.836ZM652.635 349.758C637.55 349.758 630.007 349.758 625.321 345.072C620.635 340.385 620.635 332.843 620.635 317.758V288.1C620.635 273.015 620.635 265.472 625.321 260.786C630.007 256.1 637.55 256.1 652.635 256.1H683.059C698.144 256.1 705.686 256.1 710.372 260.786C715.059 265.472 715.059 273.015 715.059 288.1V317.758C715.059 332.843 715.059 340.385 710.372 345.072C705.686 349.758 698.144 349.758 683.059 349.758H652.635ZM747.434 349.758C732.349 349.758 724.806 349.758 720.12 345.072C715.434 340.385 715.434 332.843 715.434 317.758V288.1C715.434 273.015 715.434 265.472 720.12 260.786C724.806 256.1 732.349 256.1 747.434 256.1H777.857C792.942 256.1 800.484 256.1 805.171 260.786C809.857 265.472 809.857 273.015 809.857 288.1V317.758C809.857 332.843 809.857 340.385 805.171 345.072C800.484 349.758 792.942 349.758 777.857 349.758H747.434ZM809.857 382.133C809.857 367.048 809.857 359.506 805.171 354.819C800.484 350.133 792.942 350.133 777.857 350.133H747.434C732.349 350.133 724.806 350.133 720.12 354.819C715.434 359.506 715.434 367.048 715.434 382.133V411.792C715.434 426.876 715.434 434.419 720.12 439.105C724.806 443.792 732.349 443.792 747.434 443.792H777.857C792.942 443.792 800.484 443.792 805.171 439.105C809.857 434.419 809.857 426.876 809.857 411.792V382.133ZM715.059 382.133C715.059 367.048 715.059 359.506 710.372 354.819C705.686 350.133 698.144 350.133 683.059 350.133H652.635C637.55 350.133 630.007 350.133 625.321 354.819C620.635 359.506 620.635 367.048 620.635 382.133V411.792C620.635 426.876 620.635 434.419 625.321 439.105C630.007 443.792 637.55 443.792 652.635 443.792H683.059C698.144 443.792 705.686 443.792 710.372 439.105C715.059 434.419 715.059 426.876 715.059 411.792V382.133ZM620.26 382.133C620.26 367.048 620.26 359.506 615.573 354.819C610.887 350.133 603.345 350.133 588.26 350.133H557.836C542.751 350.133 535.208 350.133 530.522 354.819C525.836 359.506 525.836 367.048 525.836 382.133V411.792C525.836 426.876 525.836 434.419 530.522 439.105C535.208 443.792 542.751 443.792 557.836 443.792H588.26C603.345 443.792 610.887 443.792 615.573 439.105C620.26 434.419 620.26 426.876 620.26 411.792V382.133ZM525.461 382.133C525.461 367.048 525.461 359.506 520.775 354.819C516.088 350.133 508.546 350.133 493.461 350.133H463.038C447.953 350.133 440.411 350.133 435.725 354.819C431.038 359.506 431.038 367.048 431.038 382.133V411.792C431.038 426.876 431.038 434.419 435.725 439.105C440.411 443.792 447.953 443.792 463.038 443.792H493.461C508.546 443.792 516.088 443.792 520.775 439.105C525.461 434.419 525.461 426.876 525.461 411.792V382.133ZM430.663 382.133C430.663 367.048 430.663 359.506 425.977 354.819C421.291 350.133 413.748 350.133 398.663 350.133H368.24C353.155 350.133 345.613 350.133 340.926 354.819C336.24 359.506 336.24 367.048 336.24 382.133V411.792C336.24 426.876 336.24 434.419 340.926 439.105C345.613 443.792 353.155 443.792 368.24 443.792H398.663C413.748 443.792 421.291 443.792 425.977 439.105C430.663 434.419 430.663 426.876 430.663 411.792V382.133ZM335.865 382.133C335.865 367.048 335.865 359.506 331.179 354.819C326.492 350.133 318.95 350.133 303.865 350.133H273.442C258.358 350.133 250.815 350.133 246.129 354.819C241.442 359.506 241.442 367.048 241.442 382.133V411.792C241.442 426.876 241.442 434.419 246.129 439.105C250.815 443.792 258.358 443.792 273.442 443.792H303.865C318.95 443.792 326.492 443.792 331.179 439.105C335.865 434.419 335.865 426.876 335.865 411.792V382.133ZM241.067 382.133C241.067 367.048 241.067 359.506 236.381 354.819C231.695 350.133 224.152 350.133 209.067 350.133H178.644C163.559 350.133 156.016 350.133 151.33 354.819C146.644 359.506 146.644 367.048 146.644 382.133V411.792C146.644 426.876 146.644 434.419 151.33 439.105C156.016 443.792 163.559 443.792 178.644 443.792H209.067C224.152 443.792 231.695 443.792 236.381 439.105C241.067 434.419 241.067 426.876 241.067 411.792V382.133ZM178.644 537.825C163.559 537.825 156.016 537.825 151.33 533.139C146.644 528.453 146.644 520.91 146.644 505.825V476.167C146.644 461.082 146.644 453.539 151.33 448.853C156.016 444.167 163.559 444.167 178.644 444.167H209.067C224.152 444.167 231.695 444.167 236.381 448.853C241.067 453.539 241.067 461.082 241.067 476.167V505.825C241.067 520.91 241.067 528.453 236.381 533.139C231.695 537.825 224.152 537.825 209.067 537.825H178.644ZM273.442 537.825C258.358 537.825 250.815 537.825 246.129 533.139C241.442 528.453 241.442 520.91 241.442 505.825V476.167C241.442 461.082 241.442 453.539 246.129 448.853C250.815 444.167 258.358 444.167 273.442 444.167H303.865C318.95 444.167 326.492 444.167 331.179 448.853C335.865 453.539 335.865 461.082 335.865 476.167V505.825C335.865 520.91 335.865 528.453 331.179 533.139C326.492 537.825 318.95 537.825 303.865 537.825H273.442ZM368.24 537.825C353.155 537.825 345.613 537.825 340.926 533.139C336.24 528.453 336.24 520.91 336.24 505.825V476.167C336.24 461.082 336.24 453.539 340.926 448.853C345.613 444.167 353.155 444.167 368.24 444.167H398.663C413.748 444.167 421.291 444.167 425.977 448.853C430.663 453.539 430.663 461.082 430.663 476.167V505.825C430.663 520.91 430.663 528.453 425.977 533.139C421.291 537.825 413.748 537.825 398.663 537.825H368.24ZM463.038 537.825C447.953 537.825 440.411 537.825 435.725 533.139C431.038 528.453 431.038 520.91 431.038 505.825V476.167C431.038 461.082 431.038 453.539 435.725 448.853C440.411 444.167 447.953 444.167 463.038 444.167H493.461C508.546 444.167 516.088 444.167 520.775 448.853C525.461 453.539 525.461 461.082 525.461 476.167V505.825C525.461 520.91 525.461 528.453 520.775 533.139C516.088 537.825 508.546 537.825 493.461 537.825H463.038ZM557.836 537.825C542.751 537.825 535.208 537.825 530.522 533.139C525.836 528.453 525.836 520.91 525.836 505.825V476.167C525.836 461.082 525.836 453.539 530.522 448.853C535.208 444.167 542.751 444.167 557.836 444.167H588.26C603.345 444.167 610.887 444.167 615.573 448.853C620.26 453.539 620.26 461.082 620.26 476.167V505.825C620.26 520.91 620.26 528.453 615.573 533.139C610.887 537.825 603.345 537.825 588.26 537.825H557.836ZM652.635 537.825C637.55 537.825 630.007 537.825 625.321 533.139C620.635 528.453 620.635 520.91 620.635 505.825V476.167C620.635 461.082 620.635 453.539 625.321 448.853C630.007 444.167 637.55 444.167 652.635 444.167H683.059C698.144 444.167 705.686 444.167 710.372 448.853C715.059 453.539 715.059 461.082 715.059 476.167V505.825C715.059 520.91 715.059 528.453 710.372 533.139C705.686 537.825 698.144 537.825 683.059 537.825H652.635ZM747.434 537.825C732.349 537.825 724.806 537.825 720.12 533.139C715.434 528.453 715.434 520.91 715.434 505.825V476.167C715.434 461.082 715.434 453.539 720.12 448.853C724.806 444.167 732.349 444.167 747.434 444.167H777.857C792.942 444.167 800.484 444.167 805.171 448.853C809.857 453.539 809.857 461.082 809.857 476.167V505.825C809.857 520.91 809.857 528.453 805.171 533.139C800.484 537.825 792.942 537.825 777.857 537.825H747.434Z" fill="url(#paint0_radial_685_673)"/>
<path d="M41.6534 84H36.9943L47.4631 54.9091H52.5341L63.0028 84H58.3438L50.1193 60.1932H49.892L41.6534 84ZM42.4347 72.608H57.5483V76.3011H42.4347V72.608ZM67.0582 84V62.1818H71.3054V84H67.0582ZM69.2031 58.8153C68.4645 58.8153 67.83 58.5691 67.2997 58.0767C66.7789 57.5748 66.5185 56.9782 66.5185 56.2869C66.5185 55.5862 66.7789 54.9896 67.2997 54.4972C67.83 53.9953 68.4645 53.7443 69.2031 53.7443C69.9418 53.7443 70.5715 53.9953 71.0923 54.4972C71.6226 54.9896 71.8878 55.5862 71.8878 56.2869C71.8878 56.9782 71.6226 57.5748 71.0923 58.0767C70.5715 58.5691 69.9418 58.8153 69.2031 58.8153ZM112.108 64.3693H107.676C107.506 63.4223 107.188 62.589 106.724 61.8693C106.26 61.1496 105.692 60.5388 105.02 60.0369C104.348 59.535 103.595 59.1562 102.761 58.9006C101.938 58.6449 101.062 58.517 100.134 58.517C98.4574 58.517 96.9564 58.9384 95.6307 59.7812C94.3144 60.6241 93.2727 61.8598 92.5057 63.4886C91.7481 65.1174 91.3693 67.1061 91.3693 69.4545C91.3693 71.822 91.7481 73.8201 92.5057 75.4489C93.2727 77.0777 94.3191 78.3087 95.6449 79.142C96.9706 79.9754 98.4621 80.392 100.119 80.392C101.038 80.392 101.909 80.2689 102.733 80.0227C103.566 79.767 104.319 79.393 104.991 78.9006C105.664 78.4081 106.232 77.8068 106.696 77.0966C107.17 76.3769 107.496 75.553 107.676 74.625L112.108 74.6392C111.871 76.0691 111.412 77.3854 110.73 78.5881C110.058 79.7812 109.191 80.8134 108.131 81.6847C107.08 82.5464 105.877 83.214 104.523 83.6875C103.169 84.161 101.691 84.3977 100.091 84.3977C97.572 84.3977 95.3277 83.8011 93.358 82.608C91.3883 81.4053 89.8352 79.6866 88.6989 77.4517C87.572 75.2169 87.0085 72.5511 87.0085 69.4545C87.0085 66.3485 87.5767 63.6828 88.7131 61.4574C89.8494 59.2225 91.4025 57.5085 93.3722 56.3153C95.3419 55.1127 97.5814 54.5114 100.091 54.5114C101.634 54.5114 103.074 54.7339 104.409 55.179C105.754 55.6146 106.961 56.2585 108.031 57.1108C109.101 57.9536 109.987 58.9858 110.688 60.2074C111.388 61.4195 111.862 62.8068 112.108 64.3693ZM121.266 71.0455V84H117.019V54.9091H121.21V65.733H121.479C121.991 64.5587 122.772 63.6259 123.823 62.9347C124.874 62.2434 126.247 61.8977 127.942 61.8977C129.439 61.8977 130.746 62.2055 131.863 62.821C132.99 63.4366 133.861 64.3551 134.477 65.5767C135.102 66.7888 135.414 68.304 135.414 70.1222V84H131.167V70.6335C131.167 69.0331 130.755 67.7926 129.931 66.9119C129.107 66.0218 127.961 65.5767 126.494 65.5767C125.49 65.5767 124.59 65.7898 123.795 66.2159C123.009 66.642 122.388 67.267 121.934 68.0909C121.489 68.9053 121.266 69.8902 121.266 71.0455ZM147.431 84.483C146.049 84.483 144.799 84.2273 143.681 83.7159C142.564 83.1951 141.678 82.4422 141.025 81.4574C140.381 80.4725 140.059 79.2652 140.059 77.8352C140.059 76.6042 140.296 75.5909 140.769 74.7955C141.243 74 141.882 73.3703 142.687 72.9062C143.492 72.4422 144.391 72.0919 145.386 71.8551C146.38 71.6184 147.393 71.4384 148.425 71.3153C149.732 71.1638 150.793 71.0407 151.607 70.946C152.422 70.8419 153.013 70.6761 153.383 70.4489C153.752 70.2216 153.937 69.8523 153.937 69.3409V69.2415C153.937 68.0009 153.586 67.0398 152.886 66.358C152.194 65.6761 151.162 65.3352 149.789 65.3352C148.359 65.3352 147.232 65.6525 146.408 66.2869C145.594 66.9119 145.031 67.608 144.718 68.375L140.727 67.4659C141.2 66.1402 141.891 65.0701 142.8 64.2557C143.719 63.4318 144.775 62.8352 145.968 62.4659C147.161 62.0871 148.416 61.8977 149.732 61.8977C150.603 61.8977 151.527 62.0019 152.502 62.2102C153.487 62.4091 154.406 62.7784 155.258 63.3182C156.12 63.858 156.825 64.6297 157.374 65.6335C157.924 66.6278 158.198 67.9205 158.198 69.5114V84H154.05V81.017H153.88C153.605 81.5663 153.193 82.1061 152.644 82.6364C152.095 83.1667 151.389 83.607 150.528 83.9574C149.666 84.3078 148.634 84.483 147.431 84.483ZM148.354 81.0739C149.529 81.0739 150.532 80.8419 151.366 80.3778C152.209 79.9138 152.848 79.3078 153.283 78.5597C153.728 77.8021 153.951 76.9924 153.951 76.1307V73.3182C153.799 73.4697 153.506 73.6117 153.07 73.7443C152.644 73.8674 152.156 73.9763 151.607 74.071C151.058 74.1562 150.523 74.2367 150.002 74.3125C149.481 74.3788 149.046 74.4356 148.695 74.483C147.871 74.5871 147.119 74.7623 146.437 75.0085C145.764 75.2547 145.225 75.6098 144.817 76.0739C144.42 76.5284 144.221 77.1345 144.221 77.892C144.221 78.9432 144.609 79.7386 145.386 80.2784C146.162 80.8087 147.152 81.0739 148.354 81.0739ZM174.04 62.1818V65.5909H162.122V62.1818H174.04ZM165.318 56.9545H169.565V77.5938C169.565 78.4176 169.688 79.0379 169.935 79.4545C170.181 79.8617 170.498 80.1411 170.886 80.2926C171.284 80.4347 171.715 80.5057 172.179 80.5057C172.52 80.5057 172.818 80.482 173.074 80.4347C173.33 80.3873 173.528 80.3494 173.67 80.321L174.438 83.8295C174.191 83.9242 173.841 84.0189 173.386 84.1136C172.932 84.2178 172.364 84.2746 171.682 84.2841C170.564 84.303 169.523 84.1042 168.557 83.6875C167.591 83.2708 166.81 82.6269 166.213 81.7557C165.616 80.8845 165.318 79.7907 165.318 78.4744V56.9545ZM37.0568 107.812V105.545H50.5653V107.812H45.1193V123H42.4943V107.812H37.0568ZM57.0895 123.264C55.7997 123.264 54.6889 122.989 53.7571 122.438C52.831 121.881 52.1151 121.099 51.6094 120.094C51.1094 119.082 50.8594 117.898 50.8594 116.54C50.8594 115.199 51.1094 114.017 51.6094 112.994C52.1151 111.972 52.8196 111.173 53.723 110.599C54.6321 110.026 55.6946 109.739 56.9105 109.739C57.6491 109.739 58.3651 109.861 59.0582 110.105C59.7514 110.349 60.3736 110.733 60.9247 111.256C61.4759 111.778 61.9105 112.457 62.2287 113.293C62.5469 114.122 62.706 115.131 62.706 116.318V117.222H52.2997V115.312H60.2088C60.2088 114.642 60.0724 114.048 59.7997 113.531C59.527 113.009 59.1435 112.597 58.6491 112.295C58.1605 111.994 57.5866 111.844 56.9276 111.844C56.2116 111.844 55.5866 112.02 55.0526 112.372C54.5241 112.719 54.1151 113.173 53.8253 113.736C53.5412 114.293 53.3991 114.898 53.3991 115.551V117.043C53.3991 117.918 53.5526 118.662 53.8594 119.276C54.1719 119.889 54.6065 120.358 55.1634 120.682C55.7202 121 56.3707 121.159 57.1151 121.159C57.598 121.159 58.0384 121.091 58.4361 120.955C58.8338 120.812 59.1776 120.602 59.4673 120.324C59.7571 120.045 59.9787 119.702 60.1321 119.293L62.544 119.727C62.3509 120.437 62.0043 121.06 61.5043 121.594C61.0099 122.122 60.3878 122.534 59.6378 122.83C58.8935 123.119 58.044 123.264 57.0895 123.264ZM67.8771 118.56L67.8601 115.449H68.3033L73.5192 109.909H76.5703L70.6214 116.216H70.2209L67.8771 118.56ZM65.5334 123V105.545H68.0817V123H65.5334ZM73.8004 123L69.1129 116.778L70.8686 114.997L76.9283 123H73.8004ZM82.7024 123.29C81.8729 123.29 81.1229 123.136 80.4524 122.83C79.782 122.517 79.2507 122.065 78.8587 121.474C78.4723 120.884 78.2791 120.159 78.2791 119.301C78.2791 118.562 78.4212 117.955 78.7053 117.477C78.9893 117 79.3729 116.622 79.8558 116.344C80.3388 116.065 80.8786 115.855 81.4751 115.713C82.0717 115.571 82.6797 115.463 83.299 115.389C84.0831 115.298 84.7195 115.224 85.2081 115.168C85.6967 115.105 86.0518 115.006 86.2734 114.869C86.495 114.733 86.6058 114.511 86.6058 114.205V114.145C86.6058 113.401 86.3956 112.824 85.9751 112.415C85.5604 112.006 84.9411 111.801 84.1172 111.801C83.2592 111.801 82.5831 111.991 82.0888 112.372C81.6001 112.747 81.2621 113.165 81.0746 113.625L78.6797 113.08C78.9638 112.284 79.3786 111.642 79.924 111.153C80.4751 110.659 81.1087 110.301 81.8246 110.08C82.5405 109.852 83.2933 109.739 84.0831 109.739C84.6058 109.739 85.1598 109.801 85.745 109.926C86.3359 110.045 86.8871 110.267 87.3984 110.591C87.9155 110.915 88.3388 111.378 88.6683 111.98C88.9979 112.577 89.1626 113.352 89.1626 114.307V123H86.674V121.21H86.5717C86.407 121.54 86.1598 121.864 85.8303 122.182C85.5007 122.5 85.0774 122.764 84.5604 122.974C84.0433 123.185 83.424 123.29 82.7024 123.29ZM83.2564 121.244C83.9609 121.244 84.5632 121.105 85.0632 120.827C85.5689 120.548 85.9524 120.185 86.2138 119.736C86.4808 119.281 86.6143 118.795 86.6143 118.278V116.591C86.5234 116.682 86.3473 116.767 86.0859 116.847C85.8303 116.92 85.5376 116.986 85.2081 117.043C84.8786 117.094 84.5575 117.142 84.245 117.188C83.9325 117.227 83.6712 117.261 83.4609 117.29C82.9666 117.352 82.5149 117.457 82.1058 117.605C81.7024 117.753 81.3786 117.966 81.1342 118.244C80.8956 118.517 80.7763 118.881 80.7763 119.335C80.7763 119.966 81.0092 120.443 81.4751 120.767C81.9411 121.085 82.5348 121.244 83.2564 121.244Z" fill="#131313"/>
<rect x="580" y="49" width="74" height="72" rx="36" fill="#E6E6E6"/>
<path d="M605.666 99.3335H628.333C628.88 99.3335 629.333 98.8802 629.333 98.3335C629.333 97.7868 628.88 97.3335 628.333 97.3335H605.666C605.12 97.3335 604.666 97.7868 604.666 98.3335C604.666 98.8802 605.12 99.3335 605.666 99.3335Z" fill="white"/>
<path d="M607.667 93.3334C607.92 93.3334 608.173 93.24 608.373 93.04L627.04 74.3734C627.427 73.9867 627.427 73.3467 627.04 72.96C626.653 72.5734 626.013 72.5734 625.627 72.96L606.96 91.6267C606.573 92.0134 606.573 92.6534 606.96 93.04C607.16 93.24 607.413 93.3334 607.667 93.3334Z" fill="white"/>
<path d="M626.333 88.3598C626.88 88.3598 627.333 87.9065 627.333 87.3598V73.6665C627.333 73.1198 626.88 72.6665 626.333 72.6665H612.64C612.093 72.6665 611.64 73.1198 611.64 73.6665C611.64 74.2132 612.093 74.6665 612.64 74.6665H625.333V87.3598C625.333 87.9065 625.786 88.3598 626.333 88.3598Z" fill="white"/>
</g>
<rect x="0.5" y="0.5" width="689" height="349" rx="23.5" stroke="#E6E6E6"/>
<defs>
<radialGradient id="paint0_radial_685_673" cx="0" cy="0" r="1" gradientUnits="userSpaceOnUse" gradientTransform="translate(478.182 349) rotate(90) scale(407.789 598.09)">
<stop stop-color="#0983B6" stop-opacity="0.7"/>
<stop offset="1" stop-color="white" stop-opacity="0"/>
</radialGradient>
<clipPath id="clip0_685_673">
<rect width="690" height="350" rx="24" fill="white"/>
</clipPath>
</defs>
</svg>
