<svg width="690" height="350" viewBox="0 0 690 350" fill="none" xmlns="http://www.w3.org/2000/svg">
<g clip-path="url(#clip0_685_654)">
<rect width="690" height="350" rx="24" fill="#0983B6"/>
<path opacity="0.15" fill-rule="evenodd" clip-rule="evenodd" d="M114.269 537.825C129.354 537.825 136.896 537.825 141.582 533.139C146.269 528.453 146.269 520.91 146.269 505.825V476.167C146.269 461.082 146.269 453.539 141.582 448.853C136.896 444.167 129.354 444.167 114.269 444.167H70.3691C70.2656 444.167 70.1816 444.083 70.1816 443.979V443.979C70.1816 443.875 70.2656 443.792 70.3691 443.792H114.269C129.354 443.792 136.896 443.792 141.582 439.105C146.269 434.419 146.269 426.876 146.269 411.792V382.133C146.269 367.048 146.269 359.506 141.582 354.819C136.896 350.133 129.354 350.133 114.269 350.133H70.3691C70.2656 350.133 70.1816 350.049 70.1816 349.945V349.945C70.1816 349.842 70.2656 349.758 70.3691 349.758H114.269C129.354 349.758 136.896 349.758 141.582 345.072C146.269 340.385 146.269 332.843 146.269 317.758V288.1C146.269 273.015 146.269 265.472 141.582 260.786C136.896 256.1 129.354 256.1 114.269 256.1H70.3691C70.2656 256.1 70.1816 256.016 70.1816 255.912V255.912C70.1816 255.809 70.2656 255.725 70.3691 255.725H114.269C129.354 255.725 136.896 255.725 141.582 251.038C146.269 246.352 146.269 238.81 146.269 223.725V194.067C146.269 178.982 146.269 171.439 141.582 166.753C136.896 162.066 129.354 162.066 114.269 162.066H70.3691C70.2656 162.066 70.1816 161.983 70.1816 161.879V161.879C70.1816 161.775 70.2656 161.691 70.3691 161.691H114.269C129.354 161.691 136.896 161.691 141.582 157.005C146.269 152.319 146.269 144.776 146.269 129.691V71.0056C146.269 70.9021 146.353 70.8181 146.456 70.8181V70.8181C146.56 70.8181 146.644 70.9021 146.644 71.0056V129.692C146.644 144.776 146.644 152.319 151.33 157.005C156.016 161.691 163.559 161.691 178.644 161.691H209.067C224.152 161.691 231.695 161.691 236.381 157.005C241.067 152.319 241.067 144.776 241.067 129.691V71.0056C241.067 70.9021 241.151 70.8181 241.255 70.8181V70.8181C241.358 70.8181 241.442 70.9021 241.442 71.0056V129.692C241.442 144.776 241.442 152.319 246.129 157.005C250.815 161.691 258.358 161.691 273.442 161.691H303.865C318.95 161.691 326.492 161.691 331.179 157.005C335.865 152.319 335.865 144.776 335.865 129.691V71.0056C335.865 70.9021 335.949 70.8181 336.053 70.8181V70.8181C336.156 70.8181 336.24 70.9021 336.24 71.0056V129.692C336.24 144.776 336.24 152.319 340.926 157.005C345.613 161.691 353.155 161.691 368.24 161.691H398.663C413.748 161.691 421.291 161.691 425.977 157.005C430.663 152.319 430.663 144.776 430.663 129.691V71.0056C430.663 70.9021 430.747 70.8181 430.851 70.8181V70.8181C430.954 70.8181 431.038 70.9021 431.038 71.0056V129.692C431.038 144.776 431.038 152.319 435.725 157.005C440.411 161.691 447.953 161.691 463.038 161.691H493.461C508.546 161.691 516.088 161.691 520.775 157.005C525.461 152.319 525.461 144.776 525.461 129.691V71.0056C525.461 70.9021 525.545 70.8181 525.648 70.8181V70.8181C525.752 70.8181 525.836 70.9021 525.836 71.0056V129.692C525.836 144.776 525.836 152.319 530.522 157.005C535.208 161.691 542.751 161.691 557.836 161.691H588.26C603.345 161.691 610.887 161.691 615.573 157.005C620.26 152.319 620.26 144.776 620.26 129.691V71.0056C620.26 70.9021 620.344 70.8181 620.447 70.8181V70.8181C620.551 70.8181 620.635 70.9021 620.635 71.0056V129.692C620.635 144.776 620.635 152.319 625.321 157.005C630.007 161.691 637.55 161.691 652.635 161.691H683.059C698.144 161.691 705.686 161.691 710.372 157.005C715.059 152.319 715.059 144.776 715.059 129.691V71.0056C715.059 70.9021 715.143 70.8181 715.246 70.8181V70.8181C715.35 70.8181 715.434 70.9021 715.434 71.0056V129.692C715.434 144.776 715.434 152.319 720.12 157.005C724.806 161.691 732.349 161.691 747.434 161.691H777.857C792.942 161.691 800.484 161.691 805.171 157.005C809.857 152.319 809.857 144.776 809.857 129.691V71.0056C809.857 70.9021 809.941 70.8181 810.044 70.8181V70.8181C810.148 70.8181 810.232 70.9021 810.232 71.0056V129.692C810.232 144.776 810.232 152.319 814.918 157.005C819.604 161.691 827.147 161.691 842.232 161.691H885.994C886.098 161.691 886.182 161.775 886.182 161.879V161.879C886.182 161.983 886.098 162.066 885.994 162.066H842.232C827.147 162.066 819.604 162.066 814.918 166.753C810.232 171.439 810.232 178.982 810.232 194.066V223.725C810.232 238.81 810.232 246.352 814.918 251.038C819.604 255.725 827.147 255.725 842.232 255.725H885.994C886.098 255.725 886.182 255.809 886.182 255.912V255.912C886.182 256.016 886.098 256.1 885.994 256.1H842.232C827.147 256.1 819.604 256.1 814.918 260.786C810.232 265.472 810.232 273.015 810.232 288.1V317.758C810.232 332.843 810.232 340.385 814.918 345.072C819.604 349.758 827.147 349.758 842.232 349.758H885.994C886.098 349.758 886.182 349.842 886.182 349.945V349.945C886.182 350.049 886.098 350.133 885.994 350.133H842.232C827.147 350.133 819.604 350.133 814.918 354.819C810.232 359.506 810.232 367.048 810.232 382.133V411.792C810.232 426.876 810.232 434.419 814.918 439.105C819.604 443.792 827.147 443.792 842.232 443.792H885.994C886.098 443.792 886.182 443.875 886.182 443.979V443.979C886.182 444.083 886.098 444.167 885.994 444.167H842.232C827.147 444.167 819.604 444.167 814.918 448.853C810.232 453.539 810.232 461.082 810.232 476.167V505.825C810.232 520.91 810.232 528.453 814.918 533.139C819.604 537.825 827.147 537.825 842.232 537.825H885.994C886.098 537.825 886.182 537.909 886.182 538.013V538.013C886.182 538.116 886.098 538.2 885.994 538.2H842.232C827.147 538.2 819.604 538.2 814.918 542.887C810.232 547.573 810.232 555.115 810.232 570.2V626.994C810.232 627.098 810.148 627.182 810.044 627.182V627.182C809.941 627.182 809.857 627.098 809.857 626.994V570.2C809.857 555.115 809.857 547.573 805.171 542.887C800.484 538.2 792.942 538.2 777.857 538.2H747.434C732.349 538.2 724.806 538.2 720.12 542.887C715.434 547.573 715.434 555.115 715.434 570.2V626.994C715.434 627.098 715.35 627.182 715.246 627.182V627.182C715.143 627.182 715.059 627.098 715.059 626.994V570.2C715.059 555.115 715.059 547.573 710.372 542.887C705.686 538.2 698.144 538.2 683.059 538.2H652.635C637.55 538.2 630.007 538.2 625.321 542.887C620.635 547.573 620.635 555.115 620.635 570.2V626.994C620.635 627.098 620.551 627.182 620.447 627.182V627.182C620.344 627.182 620.26 627.098 620.26 626.994V570.2C620.26 555.115 620.26 547.573 615.573 542.887C610.887 538.2 603.345 538.2 588.26 538.2H557.836C542.751 538.2 535.208 538.2 530.522 542.887C525.836 547.573 525.836 555.115 525.836 570.2V626.994C525.836 627.098 525.752 627.182 525.648 627.182V627.182C525.545 627.182 525.461 627.098 525.461 626.994V570.2C525.461 555.115 525.461 547.573 520.775 542.887C516.088 538.2 508.546 538.2 493.461 538.2H463.038C447.953 538.2 440.411 538.2 435.725 542.887C431.038 547.573 431.038 555.115 431.038 570.2V626.994C431.038 627.098 430.954 627.182 430.851 627.182V627.182C430.747 627.182 430.663 627.098 430.663 626.994V570.2C430.663 555.115 430.663 547.573 425.977 542.887C421.291 538.2 413.748 538.2 398.663 538.2H368.24C353.155 538.2 345.613 538.2 340.926 542.887C336.24 547.573 336.24 555.115 336.24 570.2V626.994C336.24 627.098 336.156 627.182 336.053 627.182V627.182C335.949 627.182 335.865 627.098 335.865 626.994V570.2C335.865 555.115 335.865 547.573 331.179 542.887C326.492 538.2 318.95 538.2 303.865 538.2H273.442C258.358 538.2 250.815 538.2 246.129 542.887C241.442 547.573 241.442 555.115 241.442 570.2V626.994C241.442 627.098 241.358 627.182 241.255 627.182V627.182C241.151 627.182 241.067 627.098 241.067 626.994V570.2C241.067 555.115 241.067 547.573 236.381 542.887C231.695 538.2 224.152 538.2 209.067 538.2H178.644C163.559 538.2 156.016 538.2 151.33 542.887C146.644 547.573 146.644 555.115 146.644 570.2V626.994C146.644 627.098 146.56 627.182 146.456 627.182V627.182C146.353 627.182 146.269 627.098 146.269 626.994V570.2C146.269 555.115 146.269 547.573 141.582 542.887C136.896 538.2 129.354 538.2 114.269 538.2H70.3691C70.2656 538.2 70.1816 538.116 70.1816 538.013V538.013C70.1816 537.909 70.2656 537.825 70.3691 537.825H114.269ZM809.857 194.067C809.857 178.982 809.857 171.439 805.171 166.753C800.484 162.066 792.942 162.066 777.857 162.066H747.434C732.349 162.066 724.806 162.066 720.12 166.753C715.434 171.439 715.434 178.982 715.434 194.066V223.725C715.434 238.81 715.434 246.352 720.12 251.038C724.806 255.725 732.349 255.725 747.434 255.725H777.857C792.942 255.725 800.484 255.725 805.171 251.038C809.857 246.352 809.857 238.81 809.857 223.725V194.067ZM715.059 194.067C715.059 178.982 715.059 171.439 710.372 166.753C705.686 162.066 698.144 162.066 683.059 162.066H652.635C637.55 162.066 630.007 162.066 625.321 166.753C620.635 171.439 620.635 178.982 620.635 194.066V223.725C620.635 238.81 620.635 246.352 625.321 251.038C630.007 255.725 637.55 255.725 652.635 255.725H683.059C698.144 255.725 705.686 255.725 710.372 251.038C715.059 246.352 715.059 238.81 715.059 223.725V194.067ZM620.26 194.067C620.26 178.982 620.26 171.439 615.573 166.753C610.887 162.066 603.345 162.066 588.26 162.066H557.836C542.751 162.066 535.208 162.066 530.522 166.753C525.836 171.439 525.836 178.982 525.836 194.066V223.725C525.836 238.81 525.836 246.352 530.522 251.038C535.208 255.725 542.751 255.725 557.836 255.725H588.26C603.345 255.725 610.887 255.725 615.573 251.038C620.26 246.352 620.26 238.81 620.26 223.725V194.067ZM525.461 194.067C525.461 178.982 525.461 171.439 520.775 166.753C516.088 162.066 508.546 162.066 493.461 162.066H463.038C447.953 162.066 440.411 162.066 435.725 166.753C431.038 171.439 431.038 178.982 431.038 194.066V223.725C431.038 238.81 431.038 246.352 435.725 251.038C440.411 255.725 447.953 255.725 463.038 255.725H493.461C508.546 255.725 516.088 255.725 520.775 251.038C525.461 246.352 525.461 238.81 525.461 223.725V194.067ZM430.663 194.067C430.663 178.982 430.663 171.439 425.977 166.753C421.291 162.066 413.748 162.066 398.663 162.066H368.24C353.155 162.066 345.613 162.066 340.926 166.753C336.24 171.439 336.24 178.982 336.24 194.066V223.725C336.24 238.81 336.24 246.352 340.926 251.038C345.613 255.725 353.155 255.725 368.24 255.725H398.663C413.748 255.725 421.291 255.725 425.977 251.038C430.663 246.352 430.663 238.81 430.663 223.725V194.067ZM335.865 194.067C335.865 178.982 335.865 171.439 331.179 166.753C326.492 162.066 318.95 162.066 303.865 162.066H273.442C258.358 162.066 250.815 162.066 246.129 166.753C241.442 171.439 241.442 178.982 241.442 194.066V223.725C241.442 238.81 241.442 246.352 246.129 251.038C250.815 255.725 258.358 255.725 273.442 255.725H303.865C318.95 255.725 326.492 255.725 331.179 251.038C335.865 246.352 335.865 238.81 335.865 223.725V194.067ZM241.067 194.067C241.067 178.982 241.067 171.439 236.381 166.753C231.695 162.066 224.152 162.066 209.067 162.066H178.644C163.559 162.066 156.016 162.066 151.33 166.753C146.644 171.439 146.644 178.982 146.644 194.066V223.725C146.644 238.81 146.644 246.352 151.33 251.038C156.016 255.725 163.559 255.725 178.644 255.725H209.067C224.152 255.725 231.695 255.725 236.381 251.038C241.067 246.352 241.067 238.81 241.067 223.725V194.067ZM178.644 349.758C163.559 349.758 156.016 349.758 151.33 345.072C146.644 340.385 146.644 332.843 146.644 317.758V288.1C146.644 273.015 146.644 265.472 151.33 260.786C156.016 256.1 163.559 256.1 178.644 256.1H209.067C224.152 256.1 231.695 256.1 236.381 260.786C241.067 265.472 241.067 273.015 241.067 288.1V317.758C241.067 332.843 241.067 340.385 236.381 345.072C231.695 349.758 224.152 349.758 209.067 349.758H178.644ZM273.442 349.758C258.358 349.758 250.815 349.758 246.129 345.072C241.442 340.385 241.442 332.843 241.442 317.758V288.1C241.442 273.015 241.442 265.472 246.129 260.786C250.815 256.1 258.358 256.1 273.442 256.1H303.865C318.95 256.1 326.492 256.1 331.179 260.786C335.865 265.472 335.865 273.015 335.865 288.1V317.758C335.865 332.843 335.865 340.385 331.179 345.072C326.492 349.758 318.95 349.758 303.865 349.758H273.442ZM368.24 349.758C353.155 349.758 345.613 349.758 340.926 345.072C336.24 340.385 336.24 332.843 336.24 317.758V288.1C336.24 273.015 336.24 265.472 340.926 260.786C345.613 256.1 353.155 256.1 368.24 256.1H398.663C413.748 256.1 421.291 256.1 425.977 260.786C430.663 265.472 430.663 273.015 430.663 288.1V317.758C430.663 332.843 430.663 340.385 425.977 345.072C421.291 349.758 413.748 349.758 398.663 349.758H368.24ZM463.038 349.758C447.953 349.758 440.411 349.758 435.725 345.072C431.038 340.385 431.038 332.843 431.038 317.758V288.1C431.038 273.015 431.038 265.472 435.725 260.786C440.411 256.1 447.953 256.1 463.038 256.1H493.461C508.546 256.1 516.088 256.1 520.775 260.786C525.461 265.472 525.461 273.015 525.461 288.1V317.758C525.461 332.843 525.461 340.385 520.775 345.072C516.088 349.758 508.546 349.758 493.461 349.758H463.038ZM557.836 349.758C542.751 349.758 535.208 349.758 530.522 345.072C525.836 340.385 525.836 332.843 525.836 317.758V288.1C525.836 273.015 525.836 265.472 530.522 260.786C535.208 256.1 542.751 256.1 557.836 256.1H588.26C603.345 256.1 610.887 256.1 615.573 260.786C620.26 265.472 620.26 273.015 620.26 288.1V317.758C620.26 332.843 620.26 340.385 615.573 345.072C610.887 349.758 603.345 349.758 588.26 349.758H557.836ZM652.635 349.758C637.55 349.758 630.007 349.758 625.321 345.072C620.635 340.385 620.635 332.843 620.635 317.758V288.1C620.635 273.015 620.635 265.472 625.321 260.786C630.007 256.1 637.55 256.1 652.635 256.1H683.059C698.144 256.1 705.686 256.1 710.372 260.786C715.059 265.472 715.059 273.015 715.059 288.1V317.758C715.059 332.843 715.059 340.385 710.372 345.072C705.686 349.758 698.144 349.758 683.059 349.758H652.635ZM747.434 349.758C732.349 349.758 724.806 349.758 720.12 345.072C715.434 340.385 715.434 332.843 715.434 317.758V288.1C715.434 273.015 715.434 265.472 720.12 260.786C724.806 256.1 732.349 256.1 747.434 256.1H777.857C792.942 256.1 800.484 256.1 805.171 260.786C809.857 265.472 809.857 273.015 809.857 288.1V317.758C809.857 332.843 809.857 340.385 805.171 345.072C800.484 349.758 792.942 349.758 777.857 349.758H747.434ZM809.857 382.133C809.857 367.048 809.857 359.506 805.171 354.819C800.484 350.133 792.942 350.133 777.857 350.133H747.434C732.349 350.133 724.806 350.133 720.12 354.819C715.434 359.506 715.434 367.048 715.434 382.133V411.792C715.434 426.876 715.434 434.419 720.12 439.105C724.806 443.792 732.349 443.792 747.434 443.792H777.857C792.942 443.792 800.484 443.792 805.171 439.105C809.857 434.419 809.857 426.876 809.857 411.792V382.133ZM715.059 382.133C715.059 367.048 715.059 359.506 710.372 354.819C705.686 350.133 698.144 350.133 683.059 350.133H652.635C637.55 350.133 630.007 350.133 625.321 354.819C620.635 359.506 620.635 367.048 620.635 382.133V411.792C620.635 426.876 620.635 434.419 625.321 439.105C630.007 443.792 637.55 443.792 652.635 443.792H683.059C698.144 443.792 705.686 443.792 710.372 439.105C715.059 434.419 715.059 426.876 715.059 411.792V382.133ZM620.26 382.133C620.26 367.048 620.26 359.506 615.573 354.819C610.887 350.133 603.345 350.133 588.26 350.133H557.836C542.751 350.133 535.208 350.133 530.522 354.819C525.836 359.506 525.836 367.048 525.836 382.133V411.792C525.836 426.876 525.836 434.419 530.522 439.105C535.208 443.792 542.751 443.792 557.836 443.792H588.26C603.345 443.792 610.887 443.792 615.573 439.105C620.26 434.419 620.26 426.876 620.26 411.792V382.133ZM525.461 382.133C525.461 367.048 525.461 359.506 520.775 354.819C516.088 350.133 508.546 350.133 493.461 350.133H463.038C447.953 350.133 440.411 350.133 435.725 354.819C431.038 359.506 431.038 367.048 431.038 382.133V411.792C431.038 426.876 431.038 434.419 435.725 439.105C440.411 443.792 447.953 443.792 463.038 443.792H493.461C508.546 443.792 516.088 443.792 520.775 439.105C525.461 434.419 525.461 426.876 525.461 411.792V382.133ZM430.663 382.133C430.663 367.048 430.663 359.506 425.977 354.819C421.291 350.133 413.748 350.133 398.663 350.133H368.24C353.155 350.133 345.613 350.133 340.926 354.819C336.24 359.506 336.24 367.048 336.24 382.133V411.792C336.24 426.876 336.24 434.419 340.926 439.105C345.613 443.792 353.155 443.792 368.24 443.792H398.663C413.748 443.792 421.291 443.792 425.977 439.105C430.663 434.419 430.663 426.876 430.663 411.792V382.133ZM335.865 382.133C335.865 367.048 335.865 359.506 331.179 354.819C326.492 350.133 318.95 350.133 303.865 350.133H273.442C258.358 350.133 250.815 350.133 246.129 354.819C241.442 359.506 241.442 367.048 241.442 382.133V411.792C241.442 426.876 241.442 434.419 246.129 439.105C250.815 443.792 258.358 443.792 273.442 443.792H303.865C318.95 443.792 326.492 443.792 331.179 439.105C335.865 434.419 335.865 426.876 335.865 411.792V382.133ZM241.067 382.133C241.067 367.048 241.067 359.506 236.381 354.819C231.695 350.133 224.152 350.133 209.067 350.133H178.644C163.559 350.133 156.016 350.133 151.33 354.819C146.644 359.506 146.644 367.048 146.644 382.133V411.792C146.644 426.876 146.644 434.419 151.33 439.105C156.016 443.792 163.559 443.792 178.644 443.792H209.067C224.152 443.792 231.695 443.792 236.381 439.105C241.067 434.419 241.067 426.876 241.067 411.792V382.133ZM178.644 537.825C163.559 537.825 156.016 537.825 151.33 533.139C146.644 528.453 146.644 520.91 146.644 505.825V476.167C146.644 461.082 146.644 453.539 151.33 448.853C156.016 444.167 163.559 444.167 178.644 444.167H209.067C224.152 444.167 231.695 444.167 236.381 448.853C241.067 453.539 241.067 461.082 241.067 476.167V505.825C241.067 520.91 241.067 528.453 236.381 533.139C231.695 537.825 224.152 537.825 209.067 537.825H178.644ZM273.442 537.825C258.358 537.825 250.815 537.825 246.129 533.139C241.442 528.453 241.442 520.91 241.442 505.825V476.167C241.442 461.082 241.442 453.539 246.129 448.853C250.815 444.167 258.358 444.167 273.442 444.167H303.865C318.95 444.167 326.492 444.167 331.179 448.853C335.865 453.539 335.865 461.082 335.865 476.167V505.825C335.865 520.91 335.865 528.453 331.179 533.139C326.492 537.825 318.95 537.825 303.865 537.825H273.442ZM368.24 537.825C353.155 537.825 345.613 537.825 340.926 533.139C336.24 528.453 336.24 520.91 336.24 505.825V476.167C336.24 461.082 336.24 453.539 340.926 448.853C345.613 444.167 353.155 444.167 368.24 444.167H398.663C413.748 444.167 421.291 444.167 425.977 448.853C430.663 453.539 430.663 461.082 430.663 476.167V505.825C430.663 520.91 430.663 528.453 425.977 533.139C421.291 537.825 413.748 537.825 398.663 537.825H368.24ZM463.038 537.825C447.953 537.825 440.411 537.825 435.725 533.139C431.038 528.453 431.038 520.91 431.038 505.825V476.167C431.038 461.082 431.038 453.539 435.725 448.853C440.411 444.167 447.953 444.167 463.038 444.167H493.461C508.546 444.167 516.088 444.167 520.775 448.853C525.461 453.539 525.461 461.082 525.461 476.167V505.825C525.461 520.91 525.461 528.453 520.775 533.139C516.088 537.825 508.546 537.825 493.461 537.825H463.038ZM557.836 537.825C542.751 537.825 535.208 537.825 530.522 533.139C525.836 528.453 525.836 520.91 525.836 505.825V476.167C525.836 461.082 525.836 453.539 530.522 448.853C535.208 444.167 542.751 444.167 557.836 444.167H588.26C603.345 444.167 610.887 444.167 615.573 448.853C620.26 453.539 620.26 461.082 620.26 476.167V505.825C620.26 520.91 620.26 528.453 615.573 533.139C610.887 537.825 603.345 537.825 588.26 537.825H557.836ZM652.635 537.825C637.55 537.825 630.007 537.825 625.321 533.139C620.635 528.453 620.635 520.91 620.635 505.825V476.167C620.635 461.082 620.635 453.539 625.321 448.853C630.007 444.167 637.55 444.167 652.635 444.167H683.059C698.144 444.167 705.686 444.167 710.372 448.853C715.059 453.539 715.059 461.082 715.059 476.167V505.825C715.059 520.91 715.059 528.453 710.372 533.139C705.686 537.825 698.144 537.825 683.059 537.825H652.635ZM747.434 537.825C732.349 537.825 724.806 537.825 720.12 533.139C715.434 528.453 715.434 520.91 715.434 505.825V476.167C715.434 461.082 715.434 453.539 720.12 448.853C724.806 444.167 732.349 444.167 747.434 444.167H777.857C792.942 444.167 800.484 444.167 805.171 448.853C809.857 453.539 809.857 461.082 809.857 476.167V505.825C809.857 520.91 809.857 528.453 805.171 533.139C800.484 537.825 792.942 537.825 777.857 537.825H747.434Z" fill="url(#paint0_radial_685_654)"/>
<path d="M39.196 84V54.9091H49.8494C51.9138 54.9091 53.6231 55.25 54.9773 55.9318C56.3314 56.6042 57.3447 57.518 58.017 58.6733C58.6894 59.8191 59.0256 61.1117 59.0256 62.5511C59.0256 63.7633 58.803 64.786 58.358 65.6193C57.9129 66.4432 57.3163 67.1061 56.5682 67.608C55.8295 68.1004 55.0152 68.4602 54.125 68.6875V68.9716C55.0909 69.0189 56.0331 69.3314 56.9517 69.9091C57.8797 70.4773 58.6468 71.2869 59.2528 72.3381C59.8589 73.3892 60.1619 74.6676 60.1619 76.1733C60.1619 77.66 59.8116 78.9953 59.1108 80.179C58.4195 81.3532 57.3494 82.286 55.9006 82.9773C54.4517 83.6591 52.6004 84 50.3466 84H39.196ZM43.5852 80.2358H49.9205C52.0227 80.2358 53.5284 79.8286 54.4375 79.0142C55.3466 78.1998 55.8011 77.1818 55.8011 75.9602C55.8011 75.0417 55.5691 74.1989 55.1051 73.4318C54.6411 72.6648 53.9782 72.054 53.1165 71.5994C52.2642 71.1449 51.2509 70.9176 50.0767 70.9176H43.5852V80.2358ZM43.5852 67.4943H49.4659C50.4508 67.4943 51.3362 67.3049 52.1222 66.9261C52.9176 66.5473 53.5473 66.017 54.0114 65.3352C54.4848 64.6439 54.7216 63.8295 54.7216 62.892C54.7216 61.6894 54.3002 60.6809 53.4574 59.8665C52.6146 59.0521 51.322 58.6449 49.5795 58.6449H43.5852V67.4943ZM69.2741 54.9091V84H65.027V54.9091H69.2741ZM84.1783 84.4403C82.1328 84.4403 80.3478 83.9716 78.8232 83.0341C77.2985 82.0966 76.1148 80.785 75.272 79.0994C74.4292 77.4138 74.0078 75.4441 74.0078 73.1903C74.0078 70.9271 74.4292 68.9479 75.272 67.2528C76.1148 65.5578 77.2985 64.2415 78.8232 63.304C80.3478 62.3665 82.1328 61.8977 84.1783 61.8977C86.2237 61.8977 88.0088 62.3665 89.5334 63.304C91.058 64.2415 92.2417 65.5578 93.0845 67.2528C93.9273 68.9479 94.3487 70.9271 94.3487 73.1903C94.3487 75.4441 93.9273 77.4138 93.0845 79.0994C92.2417 80.785 91.058 82.0966 89.5334 83.0341C88.0088 83.9716 86.2237 84.4403 84.1783 84.4403ZM84.1925 80.875C85.5182 80.875 86.6167 80.5246 87.4879 79.8239C88.3591 79.1231 89.0031 78.1903 89.4197 77.0256C89.8459 75.8608 90.0589 74.5777 90.0589 73.1761C90.0589 71.7841 89.8459 70.5057 89.4197 69.3409C89.0031 68.1667 88.3591 67.2244 87.4879 66.5142C86.6167 65.804 85.5182 65.4489 84.1925 65.4489C82.8572 65.4489 81.7493 65.804 80.8686 66.5142C79.9974 67.2244 79.3487 68.1667 78.9226 69.3409C78.5059 70.5057 78.2976 71.7841 78.2976 73.1761C78.2976 74.5777 78.5059 75.8608 78.9226 77.0256C79.3487 78.1903 79.9974 79.1231 80.8686 79.8239C81.7493 80.5246 82.8572 80.875 84.1925 80.875ZM108.28 84.4403C106.168 84.4403 104.35 83.9621 102.825 83.0057C101.31 82.0398 100.145 80.7093 99.331 79.0142C98.5166 77.3191 98.1094 75.3778 98.1094 73.1903C98.1094 70.9744 98.526 69.0189 99.3594 67.3239C100.193 65.6193 101.367 64.2888 102.882 63.3324C104.397 62.3759 106.182 61.8977 108.237 61.8977C109.894 61.8977 111.372 62.2055 112.669 62.821C113.966 63.4271 115.013 64.2794 115.808 65.3778C116.613 66.4763 117.091 67.7595 117.243 69.2273H113.109C112.882 68.2045 112.361 67.3239 111.547 66.5852C110.742 65.8466 109.662 65.4773 108.308 65.4773C107.125 65.4773 106.088 65.7898 105.197 66.4148C104.317 67.0303 103.63 67.911 103.138 69.0568C102.645 70.1932 102.399 71.5379 102.399 73.0909C102.399 74.6818 102.641 76.0549 103.124 77.2102C103.607 78.3655 104.288 79.2604 105.169 79.8949C106.059 80.5294 107.106 80.8466 108.308 80.8466C109.113 80.8466 109.842 80.6998 110.496 80.4062C111.159 80.1032 111.713 79.6723 112.158 79.1136C112.612 78.5549 112.929 77.8826 113.109 77.0966H117.243C117.091 78.5076 116.632 79.767 115.865 80.875C115.098 81.983 114.071 82.8542 112.783 83.4886C111.504 84.1231 110.003 84.4403 108.28 84.4403ZM125.691 76.5994L125.663 71.4148H126.401L135.094 62.1818H140.18L130.265 72.6932H129.597L125.691 76.5994ZM121.785 84V54.9091H126.032V84H121.785ZM135.563 84L127.751 73.6307L130.677 70.6619L140.776 84H135.563ZM152.342 84.4403C150.231 84.4403 148.412 83.9621 146.888 83.0057C145.373 82.0398 144.208 80.7093 143.393 79.0142C142.579 77.3191 142.172 75.3778 142.172 73.1903C142.172 70.9744 142.589 69.0189 143.422 67.3239C144.255 65.6193 145.429 64.2888 146.945 63.3324C148.46 62.3759 150.245 61.8977 152.3 61.8977C153.957 61.8977 155.434 62.2055 156.732 62.821C158.029 63.4271 159.075 64.2794 159.871 65.3778C160.676 66.4763 161.154 67.7595 161.305 69.2273H157.172C156.945 68.2045 156.424 67.3239 155.609 66.5852C154.804 65.8466 153.725 65.4773 152.371 65.4773C151.187 65.4773 150.15 65.7898 149.26 66.4148C148.379 67.0303 147.693 67.911 147.2 69.0568C146.708 70.1932 146.462 71.5379 146.462 73.0909C146.462 74.6818 146.703 76.0549 147.186 77.2102C147.669 78.3655 148.351 79.2604 149.232 79.8949C150.122 80.5294 151.168 80.8466 152.371 80.8466C153.176 80.8466 153.905 80.6998 154.558 80.4062C155.221 80.1032 155.775 79.6723 156.22 79.1136C156.675 78.5549 156.992 77.8826 157.172 77.0966H161.305C161.154 78.5076 160.695 79.767 159.928 80.875C159.161 81.983 158.133 82.8542 156.845 83.4886C155.567 84.1231 154.066 84.4403 152.342 84.4403ZM170.094 71.0455V84H165.847V54.9091H170.038V65.733H170.308C170.819 64.5587 171.6 63.6259 172.651 62.9347C173.702 62.2434 175.076 61.8977 176.771 61.8977C178.267 61.8977 179.574 62.2055 180.691 62.821C181.818 63.4366 182.689 64.3551 183.305 65.5767C183.93 66.7888 184.242 68.304 184.242 70.1222V84H179.995V70.6335C179.995 69.0331 179.583 67.7926 178.759 66.9119C177.935 66.0218 176.79 65.5767 175.322 65.5767C174.318 65.5767 173.418 65.7898 172.623 66.2159C171.837 66.642 171.217 67.267 170.762 68.0909C170.317 68.9053 170.094 69.8902 170.094 71.0455ZM196.259 84.483C194.877 84.483 193.627 84.2273 192.509 83.7159C191.392 83.1951 190.506 82.4422 189.853 81.4574C189.209 80.4725 188.887 79.2652 188.887 77.8352C188.887 76.6042 189.124 75.5909 189.597 74.7955C190.071 74 190.71 73.3703 191.515 72.9062C192.32 72.4422 193.219 72.0919 194.214 71.8551C195.208 71.6184 196.221 71.4384 197.254 71.3153C198.56 71.1638 199.621 71.0407 200.435 70.946C201.25 70.8419 201.842 70.6761 202.211 70.4489C202.58 70.2216 202.765 69.8523 202.765 69.3409V69.2415C202.765 68.0009 202.415 67.0398 201.714 66.358C201.022 65.6761 199.99 65.3352 198.617 65.3352C197.187 65.3352 196.06 65.6525 195.237 66.2869C194.422 66.9119 193.859 67.608 193.546 68.375L189.555 67.4659C190.028 66.1402 190.719 65.0701 191.629 64.2557C192.547 63.4318 193.603 62.8352 194.796 62.4659C195.989 62.0871 197.244 61.8977 198.56 61.8977C199.432 61.8977 200.355 62.0019 201.33 62.2102C202.315 62.4091 203.234 62.7784 204.086 63.3182C204.948 63.858 205.653 64.6297 206.202 65.6335C206.752 66.6278 207.026 67.9205 207.026 69.5114V84H202.879V81.017H202.708C202.433 81.5663 202.022 82.1061 201.472 82.6364C200.923 83.1667 200.218 83.607 199.356 83.9574C198.494 84.3078 197.462 84.483 196.259 84.483ZM197.183 81.0739C198.357 81.0739 199.361 80.8419 200.194 80.3778C201.037 79.9138 201.676 79.3078 202.112 78.5597C202.557 77.8021 202.779 76.9924 202.779 76.1307V73.3182C202.628 73.4697 202.334 73.6117 201.898 73.7443C201.472 73.8674 200.985 73.9763 200.435 74.071C199.886 74.1562 199.351 74.2367 198.83 74.3125C198.309 74.3788 197.874 74.4356 197.523 74.483C196.7 74.5871 195.947 74.7623 195.265 75.0085C194.593 75.2547 194.053 75.6098 193.646 76.0739C193.248 76.5284 193.049 77.1345 193.049 77.892C193.049 78.9432 193.437 79.7386 194.214 80.2784C194.99 80.8087 195.98 81.0739 197.183 81.0739ZM212.683 84V62.1818H216.93V84H212.683ZM214.828 58.8153C214.089 58.8153 213.455 58.5691 212.925 58.0767C212.404 57.5748 212.143 56.9782 212.143 56.2869C212.143 55.5862 212.404 54.9896 212.925 54.4972C213.455 53.9953 214.089 53.7443 214.828 53.7443C215.567 53.7443 216.196 53.9953 216.717 54.4972C217.248 54.9896 217.513 55.5862 217.513 56.2869C217.513 56.9782 217.248 57.5748 216.717 58.0767C216.196 58.5691 215.567 58.8153 214.828 58.8153ZM226.891 71.0455V84H222.644V62.1818H226.721V65.733H226.991C227.493 64.5777 228.279 63.6496 229.349 62.9489C230.428 62.2481 231.787 61.8977 233.425 61.8977C234.912 61.8977 236.214 62.2102 237.332 62.8352C238.449 63.4508 239.316 64.3693 239.931 65.5909C240.547 66.8125 240.854 68.3229 240.854 70.1222V84H236.607V70.6335C236.607 69.0521 236.195 67.8163 235.371 66.9261C234.548 66.0265 233.416 65.5767 231.977 65.5767C230.992 65.5767 230.116 65.7898 229.349 66.2159C228.591 66.642 227.99 67.267 227.545 68.0909C227.109 68.9053 226.891 69.8902 226.891 71.0455ZM43.5682 123H37.9176V105.545H43.7472C45.4574 105.545 46.9261 105.895 48.1534 106.594C49.3807 107.287 50.321 108.284 50.9744 109.585C51.6335 110.881 51.9631 112.435 51.9631 114.247C51.9631 116.065 51.6307 117.628 50.9659 118.935C50.3068 120.241 49.3523 121.247 48.1023 121.952C46.8523 122.651 45.3409 123 43.5682 123ZM40.5511 120.699H43.4233C44.7528 120.699 45.858 120.449 46.7386 119.949C47.6193 119.443 48.2784 118.713 48.7159 117.759C49.1534 116.798 49.3722 115.628 49.3722 114.247C49.3722 112.878 49.1534 111.716 48.7159 110.761C48.2841 109.807 47.6392 109.082 46.7812 108.588C45.9233 108.094 44.858 107.847 43.5852 107.847H40.5511V120.699ZM58.843 123.29C58.0135 123.29 57.2635 123.136 56.593 122.83C55.9226 122.517 55.3913 122.065 54.9993 121.474C54.6129 120.884 54.4197 120.159 54.4197 119.301C54.4197 118.562 54.5618 117.955 54.8459 117.477C55.13 117 55.5135 116.622 55.9964 116.344C56.4794 116.065 57.0192 115.855 57.6158 115.713C58.2124 115.571 58.8203 115.463 59.4396 115.389C60.2237 115.298 60.8601 115.224 61.3487 115.168C61.8374 115.105 62.1925 115.006 62.4141 114.869C62.6357 114.733 62.7464 114.511 62.7464 114.205V114.145C62.7464 113.401 62.5362 112.824 62.1158 112.415C61.701 112.006 61.0817 111.801 60.2578 111.801C59.3999 111.801 58.7237 111.991 58.2294 112.372C57.7408 112.747 57.4027 113.165 57.2152 113.625L54.8203 113.08C55.1044 112.284 55.5192 111.642 56.0646 111.153C56.6158 110.659 57.2493 110.301 57.9652 110.08C58.6811 109.852 59.4339 109.739 60.2237 109.739C60.7464 109.739 61.3004 109.801 61.8857 109.926C62.4766 110.045 63.0277 110.267 63.5391 110.591C64.0561 110.915 64.4794 111.378 64.8089 111.98C65.1385 112.577 65.3033 113.352 65.3033 114.307V123H62.8146V121.21H62.7124C62.5476 121.54 62.3004 121.864 61.9709 122.182C61.6413 122.5 61.218 122.764 60.701 122.974C60.1839 123.185 59.5646 123.29 58.843 123.29ZM59.397 121.244C60.1016 121.244 60.7038 121.105 61.2038 120.827C61.7095 120.548 62.093 120.185 62.3544 119.736C62.6214 119.281 62.755 118.795 62.755 118.278V116.591C62.6641 116.682 62.4879 116.767 62.2266 116.847C61.9709 116.92 61.6783 116.986 61.3487 117.043C61.0192 117.094 60.6982 117.142 60.3857 117.188C60.0732 117.227 59.8118 117.261 59.6016 117.29C59.1072 117.352 58.6555 117.457 58.2464 117.605C57.843 117.753 57.5192 117.966 57.2749 118.244C57.0362 118.517 56.9169 118.881 56.9169 119.335C56.9169 119.966 57.1499 120.443 57.6158 120.767C58.0817 121.085 58.6754 121.244 59.397 121.244ZM74.8082 109.909V111.955H67.6577V109.909H74.8082ZM69.5753 106.773H72.1236V119.156C72.1236 119.651 72.1974 120.023 72.3452 120.273C72.4929 120.517 72.6832 120.685 72.9162 120.776C73.1548 120.861 73.4134 120.903 73.6918 120.903C73.8963 120.903 74.0753 120.889 74.2287 120.861C74.3821 120.832 74.5014 120.81 74.5866 120.793L75.0469 122.898C74.8991 122.955 74.6889 123.011 74.4162 123.068C74.1435 123.131 73.8026 123.165 73.3935 123.17C72.723 123.182 72.098 123.062 71.5185 122.812C70.9389 122.562 70.4702 122.176 70.1122 121.653C69.7543 121.131 69.5753 120.474 69.5753 119.685V106.773ZM81.4368 123.29C80.6072 123.29 79.8572 123.136 79.1868 122.83C78.5163 122.517 77.9851 122.065 77.593 121.474C77.2067 120.884 77.0135 120.159 77.0135 119.301C77.0135 118.562 77.1555 117.955 77.4396 117.477C77.7237 117 78.1072 116.622 78.5902 116.344C79.0732 116.065 79.6129 115.855 80.2095 115.713C80.8061 115.571 81.4141 115.463 82.0334 115.389C82.8175 115.298 83.4538 115.224 83.9425 115.168C84.4311 115.105 84.7862 115.006 85.0078 114.869C85.2294 114.733 85.3402 114.511 85.3402 114.205V114.145C85.3402 113.401 85.13 112.824 84.7095 112.415C84.2947 112.006 83.6754 111.801 82.8516 111.801C81.9936 111.801 81.3175 111.991 80.8232 112.372C80.3345 112.747 79.9964 113.165 79.8089 113.625L77.4141 113.08C77.6982 112.284 78.1129 111.642 78.6584 111.153C79.2095 110.659 79.843 110.301 80.5589 110.08C81.2749 109.852 82.0277 109.739 82.8175 109.739C83.3402 109.739 83.8942 109.801 84.4794 109.926C85.0703 110.045 85.6214 110.267 86.1328 110.591C86.6499 110.915 87.0732 111.378 87.4027 111.98C87.7322 112.577 87.897 113.352 87.897 114.307V123H85.4084V121.21H85.3061C85.1413 121.54 84.8942 121.864 84.5646 122.182C84.2351 122.5 83.8118 122.764 83.2947 122.974C82.7777 123.185 82.1584 123.29 81.4368 123.29ZM81.9908 121.244C82.6953 121.244 83.2976 121.105 83.7976 120.827C84.3033 120.548 84.6868 120.185 84.9482 119.736C85.2152 119.281 85.3487 118.795 85.3487 118.278V116.591C85.2578 116.682 85.0817 116.767 84.8203 116.847C84.5646 116.92 84.272 116.986 83.9425 117.043C83.6129 117.094 83.2919 117.142 82.9794 117.188C82.6669 117.227 82.4055 117.261 82.1953 117.29C81.701 117.352 81.2493 117.457 80.8402 117.605C80.4368 117.753 80.1129 117.966 79.8686 118.244C79.63 118.517 79.5107 118.881 79.5107 119.335C79.5107 119.966 79.7436 120.443 80.2095 120.767C80.6754 121.085 81.2692 121.244 81.9908 121.244ZM107.367 110.131C107.276 109.324 106.901 108.699 106.242 108.256C105.583 107.807 104.754 107.582 103.754 107.582C103.038 107.582 102.418 107.696 101.896 107.923C101.373 108.145 100.967 108.452 100.677 108.844C100.393 109.23 100.251 109.67 100.251 110.165C100.251 110.58 100.347 110.937 100.54 111.239C100.739 111.54 100.998 111.793 101.316 111.997C101.64 112.196 101.987 112.364 102.356 112.5C102.725 112.631 103.08 112.739 103.421 112.824L105.126 113.267C105.683 113.403 106.254 113.588 106.839 113.821C107.424 114.054 107.967 114.361 108.467 114.741C108.967 115.122 109.37 115.594 109.677 116.156C109.989 116.719 110.146 117.392 110.146 118.176C110.146 119.165 109.89 120.043 109.379 120.81C108.873 121.577 108.137 122.182 107.171 122.625C106.211 123.068 105.049 123.29 103.685 123.29C102.379 123.29 101.248 123.082 100.293 122.668C99.3388 122.253 98.5916 121.665 98.0518 120.903C97.5121 120.136 97.2138 119.227 97.157 118.176H99.799C99.8501 118.807 100.055 119.332 100.413 119.753C100.776 120.168 101.239 120.477 101.802 120.682C102.37 120.881 102.992 120.98 103.668 120.98C104.413 120.98 105.075 120.864 105.654 120.631C106.239 120.392 106.7 120.062 107.035 119.642C107.37 119.216 107.538 118.719 107.538 118.151C107.538 117.634 107.39 117.21 107.094 116.881C106.805 116.551 106.41 116.278 105.91 116.062C105.415 115.847 104.856 115.656 104.231 115.491L102.168 114.929C100.771 114.548 99.6626 113.989 98.8445 113.25C98.032 112.511 97.6257 111.534 97.6257 110.318C97.6257 109.312 97.8984 108.435 98.4439 107.685C98.9893 106.935 99.728 106.352 100.66 105.938C101.592 105.517 102.643 105.307 103.813 105.307C104.995 105.307 106.038 105.514 106.941 105.929C107.85 106.344 108.566 106.915 109.089 107.642C109.612 108.364 109.884 109.193 109.907 110.131H107.367ZM118.73 123.264C117.44 123.264 116.33 122.989 115.398 122.438C114.472 121.881 113.756 121.099 113.25 120.094C112.75 119.082 112.5 117.898 112.5 116.54C112.5 115.199 112.75 114.017 113.25 112.994C113.756 111.972 114.46 111.173 115.364 110.599C116.273 110.026 117.335 109.739 118.551 109.739C119.29 109.739 120.006 109.861 120.699 110.105C121.392 110.349 122.014 110.733 122.565 111.256C123.116 111.778 123.551 112.457 123.869 113.293C124.188 114.122 124.347 115.131 124.347 116.318V117.222H113.94V115.312H121.849C121.849 114.642 121.713 114.048 121.44 113.531C121.168 113.009 120.784 112.597 120.29 112.295C119.801 111.994 119.227 111.844 118.568 111.844C117.852 111.844 117.227 112.02 116.693 112.372C116.165 112.719 115.756 113.173 115.466 113.736C115.182 114.293 115.04 114.898 115.04 115.551V117.043C115.04 117.918 115.193 118.662 115.5 119.276C115.812 119.889 116.247 120.358 116.804 120.682C117.361 121 118.011 121.159 118.756 121.159C119.239 121.159 119.679 121.091 120.077 120.955C120.474 120.812 120.818 120.602 121.108 120.324C121.398 120.045 121.619 119.702 121.773 119.293L124.185 119.727C123.991 120.437 123.645 121.06 123.145 121.594C122.651 122.122 122.028 122.534 121.278 122.83C120.534 123.119 119.685 123.264 118.73 123.264ZM132.688 123.264C131.421 123.264 130.33 122.977 129.415 122.403C128.506 121.824 127.808 121.026 127.319 120.009C126.83 118.991 126.586 117.827 126.586 116.514C126.586 115.185 126.836 114.011 127.336 112.994C127.836 111.972 128.54 111.173 129.45 110.599C130.359 110.026 131.43 109.739 132.663 109.739C133.657 109.739 134.543 109.923 135.322 110.293C136.1 110.656 136.728 111.168 137.205 111.827C137.688 112.486 137.975 113.256 138.066 114.136H135.586C135.45 113.523 135.137 112.994 134.648 112.551C134.165 112.108 133.518 111.886 132.705 111.886C131.995 111.886 131.373 112.074 130.839 112.449C130.31 112.818 129.898 113.347 129.603 114.034C129.308 114.716 129.16 115.523 129.16 116.455C129.16 117.409 129.305 118.233 129.594 118.926C129.884 119.619 130.293 120.156 130.822 120.537C131.356 120.918 131.984 121.108 132.705 121.108C133.188 121.108 133.626 121.02 134.018 120.844C134.415 120.662 134.748 120.403 135.015 120.068C135.288 119.733 135.478 119.33 135.586 118.858H138.066C137.975 119.705 137.7 120.46 137.239 121.125C136.779 121.79 136.163 122.312 135.39 122.693C134.623 123.074 133.722 123.264 132.688 123.264ZM149.084 117.571V109.909H151.641V123H149.135V120.733H148.999C148.697 121.432 148.214 122.014 147.55 122.48C146.891 122.94 146.07 123.17 145.087 123.17C144.246 123.17 143.501 122.986 142.854 122.616C142.212 122.241 141.706 121.688 141.337 120.955C140.973 120.222 140.791 119.315 140.791 118.236V109.909H143.339V117.929C143.339 118.821 143.587 119.531 144.081 120.06C144.575 120.588 145.217 120.852 146.007 120.852C146.484 120.852 146.959 120.733 147.43 120.494C147.908 120.256 148.303 119.895 148.615 119.412C148.933 118.929 149.089 118.315 149.084 117.571ZM155.065 123V109.909H157.528V111.989H157.664C157.903 111.284 158.323 110.73 158.925 110.327C159.533 109.918 160.221 109.713 160.988 109.713C161.147 109.713 161.335 109.719 161.55 109.73C161.772 109.741 161.945 109.756 162.07 109.773V112.21C161.968 112.182 161.786 112.151 161.525 112.116C161.263 112.077 161.002 112.057 160.741 112.057C160.138 112.057 159.602 112.185 159.13 112.44C158.664 112.69 158.295 113.04 158.022 113.489C157.749 113.932 157.613 114.437 157.613 115.006V123H155.065ZM164.276 123V109.909H166.824V123H164.276ZM165.562 107.889C165.119 107.889 164.739 107.741 164.42 107.446C164.108 107.145 163.952 106.787 163.952 106.372C163.952 105.952 164.108 105.594 164.42 105.298C164.739 104.997 165.119 104.847 165.562 104.847C166.006 104.847 166.384 104.997 166.696 105.298C167.014 105.594 167.173 105.952 167.173 106.372C167.173 106.787 167.014 107.145 166.696 107.446C166.384 107.741 166.006 107.889 165.562 107.889ZM176.363 109.909V111.955H169.212V109.909H176.363ZM171.13 106.773H173.678V119.156C173.678 119.651 173.752 120.023 173.9 120.273C174.048 120.517 174.238 120.685 174.471 120.776C174.71 120.861 174.968 120.903 175.246 120.903C175.451 120.903 175.63 120.889 175.783 120.861C175.937 120.832 176.056 120.81 176.141 120.793L176.602 122.898C176.454 122.955 176.244 123.011 175.971 123.068C175.698 123.131 175.357 123.165 174.948 123.17C174.278 123.182 173.653 123.062 173.073 122.812C172.494 122.562 172.025 122.176 171.667 121.653C171.309 121.131 171.13 120.474 171.13 119.685V106.773ZM180.793 127.909C180.412 127.909 180.065 127.878 179.753 127.815C179.44 127.759 179.207 127.696 179.054 127.628L179.668 125.54C180.134 125.665 180.548 125.719 180.912 125.702C181.276 125.685 181.597 125.548 181.875 125.293C182.159 125.037 182.409 124.619 182.625 124.04L182.94 123.17L178.151 109.909H180.878L184.193 120.068H184.33L187.645 109.909H190.381L184.986 124.747C184.736 125.429 184.418 126.006 184.031 126.477C183.645 126.955 183.185 127.313 182.651 127.551C182.116 127.79 181.497 127.909 180.793 127.909Z" fill="#F7F6F9"/>
<rect x="580" y="49" width="74" height="72" rx="36" fill="#076992"/>
<path d="M605.666 99.3335H628.333C628.88 99.3335 629.333 98.8802 629.333 98.3335C629.333 97.7868 628.88 97.3335 628.333 97.3335H605.666C605.12 97.3335 604.666 97.7868 604.666 98.3335C604.666 98.8802 605.12 99.3335 605.666 99.3335Z" fill="white"/>
<path d="M607.667 93.3334C607.92 93.3334 608.173 93.24 608.373 93.04L627.04 74.3734C627.427 73.9867 627.427 73.3467 627.04 72.96C626.653 72.5734 626.013 72.5734 625.627 72.96L606.96 91.6267C606.573 92.0134 606.573 92.6534 606.96 93.04C607.16 93.24 607.413 93.3334 607.667 93.3334Z" fill="white"/>
<path d="M626.333 88.3598C626.88 88.3598 627.333 87.9065 627.333 87.3598V73.6665C627.333 73.1198 626.88 72.6665 626.333 72.6665H612.64C612.093 72.6665 611.64 73.1198 611.64 73.6665C611.64 74.2132 612.093 74.6665 612.64 74.6665H625.333V87.3598C625.333 87.9065 625.786 88.3598 626.333 88.3598Z" fill="white"/>
</g>
<defs>
<radialGradient id="paint0_radial_685_654" cx="0" cy="0" r="1" gradientUnits="userSpaceOnUse" gradientTransform="translate(478.182 349) rotate(90) scale(407.789 598.09)">
<stop stop-color="white" stop-opacity="0.7"/>
<stop offset="1" stop-color="white" stop-opacity="0"/>
</radialGradient>
<clipPath id="clip0_685_654">
<rect width="690" height="350" rx="24" fill="white"/>
</clipPath>
</defs>
</svg>
